<svg width="540" height="172" viewBox="0 0 540 172" fill="none" xmlns="http://www.w3.org/2000/svg">
<path d="M305 136.333H295.667C295.313 136.333 294.974 136.193 294.724 135.943C294.474 135.693 294.333 135.354 294.333 135V125.667C294.333 125.313 294.474 124.974 294.724 124.724C294.974 124.474 295.313 124.333 295.667 124.333H305C305.354 124.333 305.693 124.474 305.943 124.724C306.193 124.974 306.333 125.313 306.333 125.667V135C306.333 135.354 306.193 135.693 305.943 135.943C305.693 136.193 305.354 136.333 305 136.333Z" fill="#8C30F5"/>
<path d="M305 153.667H295.667C295.313 153.667 294.974 153.526 294.724 153.276C294.474 153.026 294.333 152.687 294.333 152.333V143C294.333 142.646 294.474 142.307 294.724 142.057C294.974 141.807 295.313 141.667 295.667 141.667H305C305.354 141.667 305.693 141.807 305.943 142.057C306.193 142.307 306.333 142.646 306.333 143V152.333C306.333 152.687 306.193 153.026 305.943 153.276C305.693 153.526 305.354 153.667 305 153.667Z" fill="#8C30F5"/>
<path d="M310.333 125.667H323.667V128.333H310.333V125.667Z" fill="#2EC5CE"/>
<path d="M323.667 143H310.333V145.667H323.667V143Z" fill="#2EC5CE"/>
<path d="M323.667 149.667H310.333V152.333H323.667V149.667Z" fill="#D6B1FF"/>
<path d="M323.667 132.333H310.333V135H323.667V132.333Z" fill="#D6B1FF"/>
<path d="M354.46 137H358.352V116.84H354.46L350.68 119.108V123.308L354.46 120.984V137ZM371.879 137H375.743V133.864H377.535V130.308H375.743V125.268H371.879V130.308H367.483L373.839 116.84H369.471L363.115 130.308V133.864H371.879V137ZM388.377 137.42C389.871 137.42 391.177 137.107 392.297 136.482C393.417 135.857 394.29 134.984 394.915 133.864C395.541 132.744 395.853 131.437 395.853 129.944V123.896C395.853 122.403 395.541 121.096 394.915 119.976C394.29 118.856 393.417 117.983 392.297 117.358C391.177 116.733 389.871 116.42 388.377 116.42C386.884 116.42 385.577 116.733 384.457 117.358C383.337 117.983 382.465 118.856 381.839 119.976C381.214 121.096 380.901 122.403 380.901 123.896V129.944C380.901 131.437 381.214 132.744 381.839 133.864C382.465 134.984 383.337 135.857 384.457 136.482C385.577 137.107 386.884 137.42 388.377 137.42ZM388.377 133.808C387.705 133.808 387.099 133.649 386.557 133.332C386.016 133.015 385.587 132.585 385.269 132.044C384.952 131.503 384.793 130.896 384.793 130.224V123.588C384.793 122.916 384.952 122.309 385.269 121.768C385.587 121.227 386.016 120.797 386.557 120.48C387.099 120.163 387.705 120.004 388.377 120.004C389.049 120.004 389.656 120.163 390.197 120.48C390.739 120.797 391.168 121.227 391.485 121.768C391.803 122.309 391.961 122.916 391.961 123.588V130.224C391.961 130.896 391.803 131.503 391.485 132.044C391.168 132.585 390.739 133.015 390.197 133.332C389.656 133.649 389.049 133.808 388.377 133.808Z" fill="#18191F"/>
<path d="M354.784 165.24C356.123 165.24 357.216 164.899 358.064 164.216C358.912 163.528 359.493 162.608 359.808 161.456L358.608 161.144C358.363 162.051 357.923 162.773 357.288 163.312C356.653 163.845 355.819 164.112 354.784 164.112C353.883 164.112 353.128 163.907 352.52 163.496C351.917 163.08 351.464 162.507 351.16 161.776C350.861 161.045 350.715 160.2 350.72 159.24C350.731 158.28 350.885 157.435 351.184 156.704C351.483 155.968 351.931 155.395 352.528 154.984C353.131 154.573 353.883 154.368 354.784 154.368C355.819 154.368 356.653 154.637 357.288 155.176C357.923 155.709 358.363 156.429 358.608 157.336L359.808 157.024C359.493 155.872 358.912 154.955 358.064 154.272C357.216 153.584 356.123 153.24 354.784 153.24C353.637 153.24 352.669 153.493 351.88 154C351.091 154.507 350.493 155.211 350.088 156.112C349.683 157.013 349.48 158.056 349.48 159.24C349.48 160.419 349.683 161.461 350.088 162.368C350.493 163.269 351.091 163.973 351.88 164.48C352.669 164.987 353.637 165.24 354.784 165.24ZM365.181 165.24C366.034 165.24 366.765 165.048 367.373 164.664C367.986 164.28 368.456 163.747 368.781 163.064C369.112 162.376 369.277 161.579 369.277 160.672C369.277 159.781 369.114 158.995 368.789 158.312C368.469 157.624 368.002 157.088 367.389 156.704C366.781 156.315 366.045 156.12 365.181 156.12C364.338 156.12 363.61 156.312 362.997 156.696C362.389 157.075 361.92 157.605 361.589 158.288C361.258 158.971 361.093 159.765 361.093 160.672C361.093 161.563 361.253 162.352 361.573 163.04C361.898 163.728 362.365 164.267 362.973 164.656C363.586 165.045 364.322 165.24 365.181 165.24ZM365.181 164.112C364.248 164.112 363.541 163.8 363.061 163.176C362.581 162.547 362.341 161.712 362.341 160.672C362.341 159.664 362.573 158.843 363.037 158.208C363.501 157.568 364.216 157.248 365.181 157.248C366.136 157.248 366.848 157.56 367.317 158.184C367.792 158.803 368.029 159.632 368.029 160.672C368.029 161.691 367.794 162.52 367.325 163.16C366.856 163.795 366.141 164.112 365.181 164.112ZM374.346 165.216C374.965 165.216 375.522 165.099 376.018 164.864C376.519 164.624 376.93 164.269 377.25 163.8V165H378.306V156.36H377.13V160.968C377.13 161.944 376.911 162.709 376.474 163.264C376.037 163.819 375.402 164.096 374.57 164.096C373.967 164.096 373.482 163.952 373.114 163.664C372.746 163.371 372.479 162.973 372.314 162.472C372.149 161.971 372.066 161.403 372.066 160.768V156.36H370.882V161.112C370.882 161.597 370.941 162.083 371.058 162.568C371.181 163.053 371.375 163.496 371.642 163.896C371.909 164.296 372.263 164.616 372.706 164.856C373.154 165.096 373.701 165.216 374.346 165.216ZM380.534 165H381.718V160.392C381.718 159.416 381.937 158.651 382.374 158.096C382.811 157.541 383.446 157.264 384.278 157.264C384.881 157.264 385.366 157.411 385.734 157.704C386.102 157.992 386.369 158.387 386.534 158.888C386.699 159.389 386.782 159.957 386.782 160.592V165H387.966V160.248C387.966 159.763 387.905 159.277 387.782 158.792C387.665 158.307 387.473 157.864 387.206 157.464C386.939 157.064 386.585 156.744 386.142 156.504C385.699 156.264 385.153 156.144 384.502 156.144C383.883 156.144 383.323 156.264 382.822 156.504C382.326 156.739 381.918 157.091 381.598 157.56V156.36H380.534V165ZM394.746 165V163.968C394.127 164.069 393.607 164.085 393.186 164.016C392.77 163.947 392.466 163.733 392.274 163.376C392.173 163.189 392.117 162.976 392.106 162.736C392.101 162.491 392.098 162.187 392.098 161.824V157.368H394.746V156.36H392.098V153.96H390.93V156.36H389.082V157.368H390.93V161.872C390.93 162.293 390.935 162.669 390.946 163C390.962 163.331 391.047 163.653 391.202 163.968C391.394 164.352 391.674 164.635 392.042 164.816C392.415 164.997 392.837 165.099 393.306 165.12C393.781 165.141 394.261 165.101 394.746 165ZM396.448 165H397.624V160.688C397.624 160.171 397.683 159.656 397.8 159.144C397.923 158.627 398.2 158.197 398.632 157.856C398.947 157.6 399.288 157.453 399.656 157.416C400.029 157.373 400.376 157.389 400.696 157.464V156.36C400.317 156.264 399.888 156.261 399.408 156.352C398.928 156.437 398.517 156.629 398.176 156.928C397.92 157.12 397.696 157.387 397.504 157.728V156.36H396.448V165ZM402.374 154.72H403.55V153.4H402.374V154.72ZM402.374 165H403.55V156.36H402.374V165ZM409.604 165.24C410.441 165.24 411.191 165.035 411.852 164.624C412.519 164.213 413.023 163.629 413.364 162.872L412.268 162.448C411.719 163.557 410.815 164.112 409.556 164.112C408.692 164.112 408.015 163.843 407.524 163.304C407.039 162.765 406.772 162 406.724 161.008H413.532C413.575 159.483 413.241 158.288 412.532 157.424C411.828 156.555 410.836 156.12 409.556 156.12C408.724 156.12 408.001 156.307 407.388 156.68C406.78 157.053 406.308 157.584 405.972 158.272C405.636 158.96 405.468 159.776 405.468 160.72C405.468 161.632 405.636 162.427 405.972 163.104C406.313 163.781 406.793 164.307 407.412 164.68C408.036 165.053 408.767 165.24 409.604 165.24ZM409.588 157.2C411.215 157.2 412.119 158.141 412.3 160.024H406.748C406.839 159.112 407.127 158.413 407.612 157.928C408.097 157.443 408.756 157.2 409.588 157.2ZM418.532 165.232C419.593 165.232 420.425 165 421.028 164.536C421.636 164.067 421.94 163.424 421.94 162.608C421.94 162.16 421.844 161.784 421.652 161.48C421.465 161.176 421.142 160.912 420.684 160.688C420.23 160.464 419.606 160.251 418.812 160.048C418.134 159.877 417.612 159.72 417.244 159.576C416.881 159.432 416.63 159.28 416.492 159.12C416.353 158.955 416.284 158.757 416.284 158.528C416.284 158.117 416.476 157.789 416.86 157.544C417.244 157.299 417.742 157.181 418.356 157.192C419.006 157.203 419.542 157.357 419.964 157.656C420.385 157.949 420.638 158.349 420.724 158.856L421.924 158.64C421.865 158.139 421.678 157.699 421.364 157.32C421.049 156.941 420.633 156.648 420.116 156.44C419.604 156.227 419.022 156.12 418.372 156.12C417.721 156.12 417.148 156.224 416.652 156.432C416.161 156.635 415.777 156.923 415.5 157.296C415.228 157.664 415.092 158.093 415.092 158.584C415.092 158.984 415.182 159.325 415.363 159.608C415.55 159.885 415.868 160.133 416.316 160.352C416.764 160.565 417.377 160.779 418.156 160.992C418.886 161.189 419.433 161.36 419.796 161.504C420.164 161.648 420.409 161.805 420.532 161.976C420.654 162.141 420.716 162.357 420.716 162.624C420.716 163.093 420.526 163.467 420.148 163.744C419.769 164.021 419.252 164.16 418.595 164.16C417.924 164.16 417.358 164.016 416.9 163.728C416.441 163.435 416.15 163.043 416.028 162.552L414.828 162.752C414.977 163.531 415.377 164.139 416.028 164.576C416.684 165.013 417.518 165.232 418.532 165.232Z" fill="#18191F"/>
<path d="M14.6667 124.333H10.6667C10.3131 124.333 9.97392 124.474 9.72387 124.724C9.47382 124.974 9.33334 125.313 9.33334 125.667V152.333C9.33334 152.687 9.47382 153.026 9.72387 153.276C9.97392 153.526 10.3131 153.667 10.6667 153.667H14.6667V124.333Z" fill="#D6B1FF"/>
<path d="M17.3333 153.667H30.6667V124.333H17.3333V153.667ZM24 148.333C23.6464 148.333 23.3072 148.193 23.0572 147.943C22.8072 147.693 22.6667 147.354 22.6667 147C22.6667 146.646 22.8072 146.307 23.0572 146.057C23.3072 145.807 23.6464 145.667 24 145.667C24.3536 145.667 24.6928 145.807 24.9428 146.057C25.1929 146.307 25.3333 146.646 25.3333 147C25.3333 147.354 25.1929 147.693 24.9428 147.943C24.6928 148.193 24.3536 148.333 24 148.333ZM24 129.667C24.3536 129.667 24.6928 129.807 24.9428 130.057C25.1929 130.307 25.3333 130.646 25.3333 131C25.3333 131.354 25.1929 131.693 24.9428 131.943C24.6928 132.193 24.3536 132.333 24 132.333C23.6464 132.333 23.3072 132.193 23.0572 131.943C22.8072 131.693 22.6667 131.354 22.6667 131C22.6667 130.646 22.8072 130.307 23.0572 130.057C23.3072 129.807 23.6464 129.667 24 129.667ZM24 137.667C24.3536 137.667 24.6928 137.807 24.9428 138.057C25.1929 138.307 25.3333 138.646 25.3333 139C25.3333 139.354 25.1929 139.693 24.9428 139.943C24.6928 140.193 24.3536 140.333 24 140.333C23.6464 140.333 23.3072 140.193 23.0572 139.943C22.8072 139.693 22.6667 139.354 22.6667 139C22.6667 138.646 22.8072 138.307 23.0572 138.057C23.3072 137.807 23.6464 137.667 24 137.667Z" fill="#8C30F5"/>
<path d="M37.3333 124.333H33.3333V153.667H37.3333C37.687 153.667 38.0261 153.526 38.2762 153.276C38.5262 153.026 38.6667 152.687 38.6667 152.333V125.667C38.6667 125.313 38.5262 124.974 38.2762 124.724C38.0261 124.474 37.687 124.333 37.3333 124.333Z" fill="#2EC5CE"/>
<path d="M71.952 137.42C73.2213 137.42 74.3973 137.121 75.48 136.524C76.5627 135.917 77.4353 135.105 78.098 134.088C78.7607 133.061 79.092 131.913 79.092 130.644C79.092 129.375 78.8167 128.25 78.266 127.27C77.7247 126.281 76.9687 125.506 75.998 124.946C75.0367 124.377 73.9213 124.092 72.652 124.092C72.2133 124.092 71.7467 124.148 71.252 124.26C70.7573 124.372 70.286 124.549 69.838 124.792L70.118 120.396H77.748V116.84H66.744L66.128 127.564L69.348 128.544C69.572 128.329 69.908 128.105 70.356 127.872C70.804 127.629 71.3827 127.508 72.092 127.508C72.6707 127.508 73.198 127.648 73.674 127.928C74.1593 128.208 74.542 128.586 74.822 129.062C75.1113 129.538 75.256 130.065 75.256 130.644C75.256 131.223 75.1113 131.75 74.822 132.226C74.542 132.702 74.1593 133.08 73.674 133.36C73.198 133.64 72.6707 133.78 72.092 133.78C71.4387 133.78 70.818 133.57 70.23 133.15C69.642 132.73 69.2547 132.165 69.068 131.456L65.4 132.436C65.68 133.425 66.142 134.293 66.786 135.04C67.43 135.787 68.1953 136.37 69.082 136.79C69.978 137.21 70.9347 137.42 71.952 137.42ZM89.9243 137.42C91.4176 137.42 92.7243 137.107 93.8443 136.482C94.9643 135.857 95.8369 134.984 96.4623 133.864C97.0876 132.744 97.4003 131.437 97.4003 129.944V123.896C97.4003 122.403 97.0876 121.096 96.4623 119.976C95.8369 118.856 94.9643 117.983 93.8443 117.358C92.7243 116.733 91.4176 116.42 89.9243 116.42C88.4309 116.42 87.1243 116.733 86.0043 117.358C84.8843 117.983 84.0116 118.856 83.3863 119.976C82.7609 121.096 82.4483 122.403 82.4483 123.896V129.944C82.4483 131.437 82.7609 132.744 83.3863 133.864C84.0116 134.984 84.8843 135.857 86.0043 136.482C87.1243 137.107 88.4309 137.42 89.9243 137.42ZM89.9243 133.808C89.2523 133.808 88.6456 133.649 88.1043 133.332C87.5629 133.015 87.1336 132.585 86.8163 132.044C86.4989 131.503 86.3403 130.896 86.3403 130.224V123.588C86.3403 122.916 86.4989 122.309 86.8163 121.768C87.1336 121.227 87.5629 120.797 88.1043 120.48C88.6456 120.163 89.2523 120.004 89.9243 120.004C90.5963 120.004 91.2029 120.163 91.7443 120.48C92.2856 120.797 92.7149 121.227 93.0323 121.768C93.3496 122.309 93.5083 122.916 93.5083 123.588V130.224C93.5083 130.896 93.3496 131.503 93.0323 132.044C92.7149 132.585 92.2856 133.015 91.7443 133.332C91.2029 133.649 90.5963 133.808 89.9243 133.808ZM108.791 137.42C110.285 137.42 111.591 137.107 112.711 136.482C113.831 135.857 114.704 134.984 115.329 133.864C115.955 132.744 116.267 131.437 116.267 129.944V123.896C116.267 122.403 115.955 121.096 115.329 119.976C114.704 118.856 113.831 117.983 112.711 117.358C111.591 116.733 110.285 116.42 108.791 116.42C107.298 116.42 105.991 116.733 104.871 117.358C103.751 117.983 102.879 118.856 102.253 119.976C101.628 121.096 101.315 122.403 101.315 123.896V129.944C101.315 131.437 101.628 132.744 102.253 133.864C102.879 134.984 103.751 135.857 104.871 136.482C105.991 137.107 107.298 137.42 108.791 137.42ZM108.791 133.808C108.119 133.808 107.513 133.649 106.971 133.332C106.43 133.015 106.001 132.585 105.683 132.044C105.366 131.503 105.207 130.896 105.207 130.224V123.588C105.207 122.916 105.366 122.309 105.683 121.768C106.001 121.227 106.43 120.797 106.971 120.48C107.513 120.163 108.119 120.004 108.791 120.004C109.463 120.004 110.07 120.163 110.611 120.48C111.153 120.797 111.582 121.227 111.899 121.768C112.217 122.309 112.375 122.916 112.375 123.588V130.224C112.375 130.896 112.217 131.503 111.899 132.044C111.582 132.585 111.153 133.015 110.611 133.332C110.07 133.649 109.463 133.808 108.791 133.808ZM124.747 133.22H127.687V128.376H132.503V125.436H127.687V120.62H124.747V125.436H119.903V128.376H124.747V133.22Z" fill="#18191F"/>
<path d="M69.784 165.24C71.1227 165.24 72.216 164.899 73.064 164.216C73.912 163.528 74.4933 162.608 74.808 161.456L73.608 161.144C73.3627 162.051 72.9227 162.773 72.288 163.312C71.6533 163.845 70.8187 164.112 69.784 164.112C68.8827 164.112 68.128 163.907 67.52 163.496C66.9173 163.08 66.464 162.507 66.16 161.776C65.8613 161.045 65.7147 160.2 65.72 159.24C65.7307 158.28 65.8853 157.435 66.184 156.704C66.4827 155.968 66.9307 155.395 67.528 154.984C68.1307 154.573 68.8827 154.368 69.784 154.368C70.8187 154.368 71.6533 154.637 72.288 155.176C72.9227 155.709 73.3627 156.429 73.608 157.336L74.808 157.024C74.4933 155.872 73.912 154.955 73.064 154.272C72.216 153.584 71.1227 153.24 69.784 153.24C68.6373 153.24 67.6693 153.493 66.88 154C66.0907 154.507 65.4933 155.211 65.088 156.112C64.6827 157.013 64.48 158.056 64.48 159.24C64.48 160.419 64.6827 161.461 65.088 162.368C65.4933 163.269 66.0907 163.973 66.88 164.48C67.6693 164.987 68.6373 165.24 69.784 165.24ZM76.7331 165H77.9091V153.24H76.7331V165ZM80.4675 154.72H81.6435V153.4H80.4675V154.72ZM80.4675 165H81.6435V156.36H80.4675V165ZM87.6979 165.24C88.5352 165.24 89.2845 165.035 89.9459 164.624C90.6125 164.213 91.1165 163.629 91.4579 162.872L90.3619 162.448C89.8125 163.557 88.9085 164.112 87.6499 164.112C86.7859 164.112 86.1085 163.843 85.6179 163.304C85.1325 162.765 84.8659 162 84.8179 161.008H91.6259C91.6685 159.483 91.3352 158.288 90.6259 157.424C89.9219 156.555 88.9299 156.12 87.6499 156.12C86.8179 156.12 86.0952 156.307 85.4819 156.68C84.8739 157.053 84.4019 157.584 84.0659 158.272C83.7299 158.96 83.5619 159.776 83.5619 160.72C83.5619 161.632 83.7299 162.427 84.0659 163.104C84.4072 163.781 84.8872 164.307 85.5059 164.68C86.1299 165.053 86.8605 165.24 87.6979 165.24ZM87.6819 157.2C89.3085 157.2 90.2125 158.141 90.3939 160.024H84.8419C84.9325 159.112 85.2205 158.413 85.7059 157.928C86.1912 157.443 86.8499 157.2 87.6819 157.2ZM93.1589 165H94.3429V160.392C94.3429 159.416 94.5615 158.651 94.9989 158.096C95.4362 157.541 96.0709 157.264 96.9029 157.264C97.5055 157.264 97.9909 157.411 98.3589 157.704C98.7269 157.992 98.9935 158.387 99.1589 158.888C99.3242 159.389 99.4069 159.957 99.4069 160.592V165H100.591V160.248C100.591 159.763 100.53 159.277 100.407 158.792C100.29 158.307 100.098 157.864 99.8309 157.464C99.5642 157.064 99.2095 156.744 98.7669 156.504C98.3242 156.264 97.7775 156.144 97.1269 156.144C96.5082 156.144 95.9482 156.264 95.4469 156.504C94.9509 156.739 94.5429 157.091 94.2229 157.56V156.36H93.1589V165ZM107.371 165V163.968C106.752 164.069 106.232 164.085 105.811 164.016C105.395 163.947 105.091 163.733 104.899 163.376C104.798 163.189 104.742 162.976 104.731 162.736C104.726 162.491 104.723 162.187 104.723 161.824V157.368H107.371V156.36H104.723V153.96H103.555V156.36H101.707V157.368H103.555V161.872C103.555 162.293 103.56 162.669 103.571 163C103.587 163.331 103.672 163.653 103.827 163.968C104.019 164.352 104.299 164.635 104.667 164.816C105.04 164.997 105.462 165.099 105.931 165.12C106.406 165.141 106.886 165.101 107.371 165ZM112.297 165.232C113.358 165.232 114.19 165 114.793 164.536C115.401 164.067 115.705 163.424 115.705 162.608C115.705 162.16 115.609 161.784 115.417 161.48C115.23 161.176 114.908 160.912 114.449 160.688C113.996 160.464 113.372 160.251 112.577 160.048C111.9 159.877 111.377 159.72 111.009 159.576C110.646 159.432 110.396 159.28 110.257 159.12C110.118 158.955 110.049 158.757 110.049 158.528C110.049 158.117 110.241 157.789 110.625 157.544C111.009 157.299 111.508 157.181 112.121 157.192C112.772 157.203 113.308 157.357 113.729 157.656C114.15 157.949 114.404 158.349 114.489 158.856L115.689 158.64C115.63 158.139 115.444 157.699 115.129 157.32C114.814 156.941 114.398 156.648 113.881 156.44C113.369 156.227 112.788 156.12 112.137 156.12C111.486 156.12 110.913 156.224 110.417 156.432C109.926 156.635 109.542 156.923 109.265 157.296C108.993 157.664 108.857 158.093 108.857 158.584C108.857 158.984 108.948 159.325 109.129 159.608C109.316 159.885 109.633 160.133 110.081 160.352C110.529 160.565 111.142 160.779 111.921 160.992C112.652 161.189 113.198 161.36 113.561 161.504C113.929 161.648 114.174 161.805 114.297 161.976C114.42 162.141 114.481 162.357 114.481 162.624C114.481 163.093 114.292 163.467 113.913 163.744C113.534 164.021 113.017 164.16 112.361 164.16C111.689 164.16 111.124 164.016 110.665 163.728C110.206 163.435 109.916 163.043 109.793 162.552L108.593 162.752C108.742 163.531 109.142 164.139 109.793 164.576C110.449 165.013 111.284 165.232 112.297 165.232Z" fill="#18191F"/>
<path d="M321 49H309C308.646 49 308.307 48.8595 308.057 48.6095C307.807 48.3594 307.667 48.0203 307.667 47.6667V45C307.667 44.6464 307.807 44.3072 308.057 44.0572C308.307 43.8071 308.646 43.6667 309 43.6667H321C321.354 43.6667 321.693 43.8071 321.943 44.0572C322.193 44.3072 322.333 44.6464 322.333 45V47.6667C322.333 48.0203 322.193 48.3594 321.943 48.6095C321.693 48.8595 321.354 49 321 49Z" fill="#D6B1FF"/>
<path d="M321 17H297C296.646 17 296.307 17.1405 296.057 17.3905C295.807 17.6406 295.667 17.9797 295.667 18.3333V21C295.667 21.3536 295.807 21.6928 296.057 21.9428C296.307 22.1929 296.646 22.3333 297 22.3333H321C321.354 22.3333 321.693 22.1929 321.943 21.9428C322.193 21.6928 322.333 21.3536 322.333 21V18.3333C322.333 17.9797 322.193 17.6406 321.943 17.3905C321.693 17.1405 321.354 17 321 17Z" fill="#2EC5CE"/>
<path d="M321 25H297C296.646 25 296.307 25.1405 296.057 25.3905C295.807 25.6406 295.667 25.9797 295.667 26.3333V39.6667C295.667 40.0203 295.807 40.3594 296.057 40.6095C296.307 40.8595 296.646 41 297 41H321C321.354 41 321.693 40.8595 321.943 40.6095C322.193 40.3594 322.333 40.0203 322.333 39.6667V26.3333C322.333 25.9797 322.193 25.6406 321.943 25.3905C321.693 25.1405 321.354 25 321 25Z" fill="#8C30F5"/>
<path d="M350.4 30.972H364.512V27.388H356.308L360.816 23.44C361.619 22.74 362.295 22.1147 362.846 21.564C363.397 21.004 363.812 20.3973 364.092 19.744C364.372 19.0813 364.512 18.2507 364.512 17.252C364.512 15.8987 364.213 14.7087 363.616 13.682C363.019 12.6553 362.197 11.8573 361.152 11.288C360.116 10.7093 358.94 10.42 357.624 10.42C356.187 10.42 354.927 10.6953 353.844 11.246C352.761 11.7967 351.917 12.576 351.31 13.584C350.703 14.592 350.4 15.7867 350.4 17.168H354.32C354.301 16.608 354.427 16.09 354.698 15.614C354.969 15.1287 355.347 14.7413 355.832 14.452C356.327 14.1533 356.896 14.004 357.54 14.004C358.464 14.004 359.201 14.3073 359.752 14.914C360.312 15.5113 360.592 16.272 360.592 17.196C360.592 17.6253 360.461 18.0873 360.2 18.582C359.939 19.0767 359.491 19.604 358.856 20.164L350.4 27.668V30.972ZM373.464 31H377.02V18.96L382.872 31H384.216L390.068 18.96V31H393.624V10.84H390.208L383.544 24.224L376.88 10.84H373.464V31ZM397.834 13.78H401.642V10.42H397.834V13.78ZM397.834 31H401.642V15.88H397.834V31ZM406.119 31H409.927V10.42H406.119V31ZM414.404 31H418.212V10.42H414.404V31ZM422.689 13.78H426.497V10.42H422.689V13.78ZM422.689 31H426.497V15.88H422.689V31ZM437.498 31.42C439.01 31.42 440.34 31.084 441.488 30.412C442.646 29.7307 443.546 28.7927 444.19 27.598C444.844 26.394 445.17 25.008 445.17 23.44C445.17 21.8813 444.848 20.5047 444.204 19.31C443.56 18.106 442.66 17.1633 441.502 16.482C440.354 15.8007 439.02 15.46 437.498 15.46C436.005 15.46 434.684 15.796 433.536 16.468C432.388 17.14 431.488 18.078 430.834 19.282C430.181 20.4767 429.854 21.8627 429.854 23.44C429.854 24.9987 430.172 26.38 430.806 27.584C431.45 28.7787 432.346 29.7167 433.494 30.398C434.642 31.0793 435.977 31.42 437.498 31.42ZM437.498 27.864C436.313 27.864 435.412 27.4673 434.796 26.674C434.19 25.8713 433.886 24.7933 433.886 23.44C433.886 22.124 434.176 21.06 434.754 20.248C435.342 19.4267 436.257 19.016 437.498 19.016C438.702 19.016 439.608 19.4173 440.214 20.22C440.83 21.0227 441.138 22.096 441.138 23.44C441.138 24.7373 440.835 25.8013 440.228 26.632C439.631 27.4533 438.721 27.864 437.498 27.864ZM448.221 31H452.085V23.328C452.085 22.3853 452.188 21.6293 452.393 21.06C452.608 20.4907 452.878 20.0613 453.205 19.772C453.532 19.4733 453.882 19.2727 454.255 19.17C454.628 19.0673 454.978 19.016 455.305 19.016C456.117 19.016 456.742 19.198 457.181 19.562C457.629 19.926 457.951 20.3787 458.147 20.92C458.343 21.4613 458.46 22.0027 458.497 22.544C458.534 23.076 458.553 23.5147 458.553 23.86V31H462.417V22.516C462.417 22.264 462.398 21.8627 462.361 21.312C462.324 20.7613 462.216 20.1547 462.039 19.492C461.862 18.82 461.563 18.176 461.143 17.56C460.732 16.944 460.154 16.4353 459.407 16.034C458.66 15.6327 457.694 15.432 456.509 15.432C455.417 15.432 454.465 15.614 453.653 15.978C452.841 16.342 452.16 16.8273 451.609 17.434V15.88H448.221V31Z" fill="#18191F"/>
<path d="M354.616 59.24C355.496 59.24 356.272 59.0587 356.944 58.696C357.621 58.328 358.152 57.8133 358.536 57.152C358.92 56.4907 359.112 55.72 359.112 54.84V47.48H357.928V54.688C357.928 55.2853 357.827 55.8027 357.624 56.24C357.427 56.672 357.163 57.0293 356.832 57.312C356.507 57.5893 356.149 57.7947 355.76 57.928C355.371 58.0613 354.989 58.128 354.616 58.128C354.248 58.128 353.869 58.0613 353.48 57.928C353.091 57.7947 352.731 57.5893 352.4 57.312C352.075 57.0293 351.811 56.672 351.608 56.24C351.405 55.8027 351.304 55.2853 351.304 54.688V47.48L350.12 47.488V54.84C350.12 55.7253 350.312 56.4987 350.696 57.16C351.08 57.8213 351.611 58.3333 352.288 58.696C352.965 59.0587 353.741 59.24 354.616 59.24ZM364.578 59.232C365.64 59.232 366.472 59 367.074 58.536C367.682 58.0667 367.986 57.424 367.986 56.608C367.986 56.16 367.89 55.784 367.698 55.48C367.512 55.176 367.189 54.912 366.73 54.688C366.277 54.464 365.653 54.2507 364.858 54.048C364.181 53.8773 363.658 53.72 363.29 53.576C362.928 53.432 362.677 53.28 362.538 53.12C362.4 52.9547 362.33 52.7573 362.33 52.528C362.33 52.1173 362.522 51.7893 362.906 51.544C363.29 51.2987 363.789 51.1813 364.402 51.192C365.053 51.2027 365.589 51.3573 366.01 51.656C366.432 51.9493 366.685 52.3493 366.77 52.856L367.97 52.64C367.912 52.1387 367.725 51.6987 367.41 51.32C367.096 50.9413 366.68 50.648 366.162 50.44C365.65 50.2267 365.069 50.12 364.418 50.12C363.768 50.12 363.194 50.224 362.698 50.432C362.208 50.6347 361.824 50.9227 361.546 51.296C361.274 51.664 361.138 52.0933 361.138 52.584C361.138 52.984 361.229 53.3253 361.41 53.608C361.597 53.8853 361.914 54.1333 362.362 54.352C362.81 54.5653 363.424 54.7787 364.202 54.992C364.933 55.1893 365.48 55.36 365.842 55.504C366.21 55.648 366.456 55.8053 366.578 55.976C366.701 56.1413 366.762 56.3573 366.762 56.624C366.762 57.0933 366.573 57.4667 366.194 57.744C365.816 58.0213 365.298 58.16 364.642 58.16C363.97 58.16 363.405 58.016 362.946 57.728C362.488 57.4347 362.197 57.0427 362.074 56.552L360.874 56.752C361.024 57.5307 361.424 58.1387 362.074 58.576C362.73 59.0133 363.565 59.232 364.578 59.232ZM373.417 59.24C374.254 59.24 375.003 59.0347 375.665 58.624C376.331 58.2133 376.835 57.6293 377.177 56.872L376.081 56.448C375.531 57.5573 374.627 58.112 373.369 58.112C372.505 58.112 371.827 57.8427 371.337 57.304C370.851 56.7653 370.585 56 370.537 55.008H377.345C377.387 53.4827 377.054 52.288 376.345 51.424C375.641 50.5547 374.649 50.12 373.369 50.12C372.537 50.12 371.814 50.3067 371.201 50.68C370.593 51.0533 370.121 51.584 369.785 52.272C369.449 52.96 369.281 53.776 369.281 54.72C369.281 55.632 369.449 56.4267 369.785 57.104C370.126 57.7813 370.606 58.3067 371.225 58.68C371.849 59.0533 372.579 59.24 373.417 59.24ZM373.401 51.2C375.027 51.2 375.931 52.1413 376.113 54.024H370.561C370.651 53.112 370.939 52.4133 371.425 51.928C371.91 51.4427 372.569 51.2 373.401 51.2ZM379.12 59H380.296V54.688C380.296 54.1707 380.355 53.656 380.472 53.144C380.595 52.6267 380.872 52.1973 381.304 51.856C381.619 51.6 381.96 51.4533 382.328 51.416C382.701 51.3733 383.048 51.3893 383.368 51.464V50.36C382.989 50.264 382.56 50.2613 382.08 50.352C381.6 50.4373 381.189 50.6293 380.848 50.928C380.592 51.12 380.368 51.3867 380.176 51.728V50.36H379.12V59ZM387.797 59.232C388.858 59.232 389.69 59 390.293 58.536C390.901 58.0667 391.205 57.424 391.205 56.608C391.205 56.16 391.109 55.784 390.917 55.48C390.73 55.176 390.408 54.912 389.949 54.688C389.496 54.464 388.872 54.2507 388.077 54.048C387.4 53.8773 386.877 53.72 386.509 53.576C386.146 53.432 385.896 53.28 385.757 53.12C385.618 52.9547 385.549 52.7573 385.549 52.528C385.549 52.1173 385.741 51.7893 386.125 51.544C386.509 51.2987 387.008 51.1813 387.621 51.192C388.272 51.2027 388.808 51.3573 389.229 51.656C389.65 51.9493 389.904 52.3493 389.989 52.856L391.189 52.64C391.13 52.1387 390.944 51.6987 390.629 51.32C390.314 50.9413 389.898 50.648 389.381 50.44C388.869 50.2267 388.288 50.12 387.637 50.12C386.986 50.12 386.413 50.224 385.917 50.432C385.426 50.6347 385.042 50.9227 384.765 51.296C384.493 51.664 384.357 52.0933 384.357 52.584C384.357 52.984 384.448 53.3253 384.629 53.608C384.816 53.8853 385.133 54.1333 385.581 54.352C386.029 54.5653 386.642 54.7787 387.421 54.992C388.152 55.1893 388.698 55.36 389.061 55.504C389.429 55.648 389.674 55.8053 389.797 55.976C389.92 56.1413 389.981 56.3573 389.981 56.624C389.981 57.0933 389.792 57.4667 389.413 57.744C389.034 58.0213 388.517 58.16 387.861 58.16C387.189 58.16 386.624 58.016 386.165 57.728C385.706 57.4347 385.416 57.0427 385.293 56.552L384.093 56.752C384.242 57.5307 384.642 58.1387 385.293 58.576C385.949 59.0133 386.784 59.232 387.797 59.232Z" fill="#18191F"/>
<g clip-path="url(#clip0_2_300)">
<path d="M32 30.3333H40L36 25L32 30.3333ZM32 35.6667H40L36 41L32 35.6667Z" fill="#D6B1FF"/>
<path d="M9.33333 17H17.3333V49H9.33333C8.97971 49 8.64057 48.8595 8.39052 48.6095C8.14047 48.3594 8 48.0203 8 47.6667V18.3333C8 17.9797 8.14047 17.6406 8.39052 17.3905C8.64057 17.1405 8.97971 17 9.33333 17Z" fill="#8C30F5"/>
<path d="M20 17H28C28.3536 17 28.6928 17.1405 28.9428 17.3905C29.1929 17.6406 29.3333 17.9797 29.3333 18.3333V47.6667C29.3333 48.0203 29.1929 48.3594 28.9428 48.6095C28.6928 48.8595 28.3536 49 28 49H20V17Z" fill="#2EC5CE"/>
</g>
<path d="M69.46 31H73.352V10.84H69.46L65.68 13.108V17.308L69.46 14.984V31ZM86.1508 31.42C87.6442 31.42 88.9508 31.1073 90.0708 30.482C91.1908 29.8567 92.0635 28.984 92.6888 27.864C93.3142 26.744 93.6268 25.4373 93.6268 23.944V17.896C93.6268 16.4027 93.3142 15.096 92.6888 13.976C92.0635 12.856 91.1908 11.9833 90.0708 11.358C88.9508 10.7327 87.6442 10.42 86.1508 10.42C84.6575 10.42 83.3508 10.7327 82.2308 11.358C81.1108 11.9833 80.2382 12.856 79.6128 13.976C78.9875 15.096 78.6748 16.4027 78.6748 17.896V23.944C78.6748 25.4373 78.9875 26.744 79.6128 27.864C80.2382 28.984 81.1108 29.8567 82.2308 30.482C83.3508 31.1073 84.6575 31.42 86.1508 31.42ZM86.1508 27.808C85.4788 27.808 84.8722 27.6493 84.3308 27.332C83.7895 27.0147 83.3602 26.5853 83.0428 26.044C82.7255 25.5027 82.5668 24.896 82.5668 24.224V17.588C82.5668 16.916 82.7255 16.3093 83.0428 15.768C83.3602 15.2267 83.7895 14.7973 84.3308 14.48C84.8722 14.1627 85.4788 14.004 86.1508 14.004C86.8228 14.004 87.4295 14.1627 87.9708 14.48C88.5122 14.7973 88.9415 15.2267 89.2588 15.768C89.5762 16.3093 89.7348 16.916 89.7348 17.588V24.224C89.7348 24.896 89.5762 25.5027 89.2588 26.044C88.9415 26.5853 88.5122 27.0147 87.9708 27.332C87.4295 27.6493 86.8228 27.808 86.1508 27.808ZM97.262 34.78C98.55 34.9853 99.5067 34.7427 100.132 34.052C100.757 33.3613 101.07 32.344 101.07 31V27.192H97.262V31H99.222C99.3247 31.672 99.2267 32.218 98.928 32.638C98.6387 33.058 98.158 33.24 97.486 33.184L97.262 34.78ZM113.877 31.42C115.371 31.42 116.677 31.1073 117.797 30.482C118.917 29.8567 119.79 28.984 120.415 27.864C121.041 26.744 121.353 25.4373 121.353 23.944V17.896C121.353 16.4027 121.041 15.096 120.415 13.976C119.79 12.856 118.917 11.9833 117.797 11.358C116.677 10.7327 115.371 10.42 113.877 10.42C112.384 10.42 111.077 10.7327 109.957 11.358C108.837 11.9833 107.965 12.856 107.339 13.976C106.714 15.096 106.401 16.4027 106.401 17.896V23.944C106.401 25.4373 106.714 26.744 107.339 27.864C107.965 28.984 108.837 29.8567 109.957 30.482C111.077 31.1073 112.384 31.42 113.877 31.42ZM113.877 27.808C113.205 27.808 112.599 27.6493 112.057 27.332C111.516 27.0147 111.087 26.5853 110.769 26.044C110.452 25.5027 110.293 24.896 110.293 24.224V17.588C110.293 16.916 110.452 16.3093 110.769 15.768C111.087 15.2267 111.516 14.7973 112.057 14.48C112.599 14.1627 113.205 14.004 113.877 14.004C114.549 14.004 115.156 14.1627 115.697 14.48C116.239 14.7973 116.668 15.2267 116.985 15.768C117.303 16.3093 117.461 16.916 117.461 17.588V24.224C117.461 24.896 117.303 25.5027 116.985 26.044C116.668 26.5853 116.239 27.0147 115.697 27.332C115.156 27.6493 114.549 27.808 113.877 27.808ZM132.745 31.42C134.238 31.42 135.545 31.1073 136.665 30.482C137.785 29.8567 138.657 28.984 139.283 27.864C139.908 26.744 140.221 25.4373 140.221 23.944V17.896C140.221 16.4027 139.908 15.096 139.283 13.976C138.657 12.856 137.785 11.9833 136.665 11.358C135.545 10.7327 134.238 10.42 132.745 10.42C131.251 10.42 129.945 10.7327 128.825 11.358C127.705 11.9833 126.832 12.856 126.207 13.976C125.581 15.096 125.269 16.4027 125.269 17.896V23.944C125.269 25.4373 125.581 26.744 126.207 27.864C126.832 28.984 127.705 29.8567 128.825 30.482C129.945 31.1073 131.251 31.42 132.745 31.42ZM132.745 27.808C132.073 27.808 131.466 27.6493 130.925 27.332C130.383 27.0147 129.954 26.5853 129.637 26.044C129.319 25.5027 129.161 24.896 129.161 24.224V17.588C129.161 16.916 129.319 16.3093 129.637 15.768C129.954 15.2267 130.383 14.7973 130.925 14.48C131.466 14.1627 132.073 14.004 132.745 14.004C133.417 14.004 134.023 14.1627 134.565 14.48C135.106 14.7973 135.535 15.2267 135.853 15.768C136.17 16.3093 136.329 16.916 136.329 17.588V24.224C136.329 24.896 136.17 25.5027 135.853 26.044C135.535 26.5853 135.106 27.0147 134.565 27.332C134.023 27.6493 133.417 27.808 132.745 27.808ZM151.612 31.42C153.105 31.42 154.412 31.1073 155.532 30.482C156.652 29.8567 157.524 28.984 158.15 27.864C158.775 26.744 159.088 25.4373 159.088 23.944V17.896C159.088 16.4027 158.775 15.096 158.15 13.976C157.524 12.856 156.652 11.9833 155.532 11.358C154.412 10.7327 153.105 10.42 151.612 10.42C150.118 10.42 148.812 10.7327 147.692 11.358C146.572 11.9833 145.699 12.856 145.074 13.976C144.448 15.096 144.136 16.4027 144.136 17.896V23.944C144.136 25.4373 144.448 26.744 145.074 27.864C145.699 28.984 146.572 29.8567 147.692 30.482C148.812 31.1073 150.118 31.42 151.612 31.42ZM151.612 27.808C150.94 27.808 150.333 27.6493 149.792 27.332C149.25 27.0147 148.821 26.5853 148.504 26.044C148.186 25.5027 148.028 24.896 148.028 24.224V17.588C148.028 16.916 148.186 16.3093 148.504 15.768C148.821 15.2267 149.25 14.7973 149.792 14.48C150.333 14.1627 150.94 14.004 151.612 14.004C152.284 14.004 152.89 14.1627 153.432 14.48C153.973 14.7973 154.402 15.2267 154.72 15.768C155.037 16.3093 155.196 16.916 155.196 17.588V24.224C155.196 24.896 155.037 25.5027 154.72 26.044C154.402 26.5853 153.973 27.0147 153.432 27.332C152.89 27.6493 152.284 27.808 151.612 27.808ZM167.567 27.22H170.507V22.376H175.323V19.436H170.507V14.62H167.567V19.436H162.723V22.376H167.567V27.22Z" fill="#18191F"/>
<path d="M65.12 59H68.616C68.728 59 68.936 58.9973 69.24 58.992C69.544 58.9867 69.8293 58.9653 70.096 58.928C70.9707 58.8053 71.7013 58.4827 72.288 57.96C72.8747 57.432 73.3147 56.76 73.608 55.944C73.9013 55.1227 74.048 54.2213 74.048 53.24C74.048 52.2587 73.9013 51.36 73.608 50.544C73.3147 49.728 72.8747 49.056 72.288 48.528C71.7013 47.9947 70.9707 47.6693 70.096 47.552C69.8187 47.5147 69.5333 47.4933 69.24 47.488C68.9467 47.4827 68.7387 47.48 68.616 47.48H65.12V59ZM66.336 57.872V48.608H68.616C68.824 48.608 69.056 48.616 69.312 48.632C69.5733 48.6427 69.7947 48.6667 69.976 48.704C70.6427 48.8213 71.184 49.0933 71.6 49.52C72.016 49.9413 72.32 50.472 72.512 51.112C72.704 51.752 72.8 52.4613 72.8 53.24C72.8 54.0027 72.704 54.7067 72.512 55.352C72.3253 55.9973 72.024 56.5333 71.608 56.96C71.192 57.3867 70.648 57.6587 69.976 57.776C69.7947 57.8133 69.576 57.84 69.32 57.856C69.0693 57.8667 68.8347 57.872 68.616 57.872H66.336ZM79.478 59.24C80.3313 59.24 81.062 59.048 81.67 58.664C82.2833 58.28 82.7527 57.7467 83.078 57.064C83.4087 56.376 83.574 55.5787 83.574 54.672C83.574 53.7813 83.4113 52.9947 83.086 52.312C82.766 51.624 82.2993 51.088 81.686 50.704C81.078 50.3147 80.342 50.12 79.478 50.12C78.6353 50.12 77.9073 50.312 77.294 50.696C76.686 51.0747 76.2167 51.6053 75.886 52.288C75.5553 52.9707 75.39 53.7653 75.39 54.672C75.39 55.5627 75.55 56.352 75.87 57.04C76.1953 57.728 76.662 58.2667 77.27 58.656C77.8833 59.0453 78.6193 59.24 79.478 59.24ZM79.478 58.112C78.5447 58.112 77.838 57.8 77.358 57.176C76.878 56.5467 76.638 55.712 76.638 54.672C76.638 53.664 76.87 52.8427 77.334 52.208C77.798 51.568 78.5127 51.248 79.478 51.248C80.4327 51.248 81.1447 51.56 81.614 52.184C82.0887 52.8027 82.326 53.632 82.326 54.672C82.326 55.6907 82.0913 56.52 81.622 57.16C81.1527 57.7947 80.438 58.112 79.478 58.112ZM86.8663 59H87.8903L90.0423 52.12L92.2023 59H93.2263L95.8663 50.36H94.6983L92.6343 57.072L90.5783 50.36H89.5063L87.4503 57.072L85.4023 50.36L84.2263 50.352L86.8663 59ZM97.2995 59H98.4835V54.392C98.4835 53.416 98.7022 52.6507 99.1395 52.096C99.5768 51.5413 100.212 51.264 101.044 51.264C101.646 51.264 102.132 51.4107 102.5 51.704C102.868 51.992 103.134 52.3867 103.3 52.888C103.465 53.3893 103.548 53.9573 103.548 54.592V59H104.732V54.248C104.732 53.7627 104.67 53.2773 104.548 52.792C104.43 52.3067 104.238 51.864 103.972 51.464C103.705 51.064 103.35 50.744 102.908 50.504C102.465 50.264 101.918 50.144 101.268 50.144C100.649 50.144 100.089 50.264 99.5875 50.504C99.0915 50.7387 98.6835 51.0907 98.3635 51.56V50.36H97.2995V59ZM106.968 59H108.144V47.24H106.968V59ZM114.15 59.24C115.003 59.24 115.734 59.048 116.342 58.664C116.955 58.28 117.425 57.7467 117.75 57.064C118.081 56.376 118.246 55.5787 118.246 54.672C118.246 53.7813 118.083 52.9947 117.758 52.312C117.438 51.624 116.971 51.088 116.358 50.704C115.75 50.3147 115.014 50.12 114.15 50.12C113.307 50.12 112.579 50.312 111.966 50.696C111.358 51.0747 110.889 51.6053 110.558 52.288C110.227 52.9707 110.062 53.7653 110.062 54.672C110.062 55.5627 110.222 56.352 110.542 57.04C110.867 57.728 111.334 58.2667 111.942 58.656C112.555 59.0453 113.291 59.24 114.15 59.24ZM114.15 58.112C113.217 58.112 112.51 57.8 112.03 57.176C111.55 56.5467 111.31 55.712 111.31 54.672C111.31 53.664 111.542 52.8427 112.006 52.208C112.47 51.568 113.185 51.248 114.15 51.248C115.105 51.248 115.817 51.56 116.286 52.184C116.761 52.8027 116.998 53.632 116.998 54.672C116.998 55.6907 116.763 56.52 116.294 57.16C115.825 57.7947 115.11 58.112 114.15 58.112ZM122.483 59.24C123.992 59.24 125.088 58.6827 125.771 57.568V59H126.819V53.632C126.819 53.312 126.803 52.9973 126.771 52.688C126.739 52.3787 126.669 52.0987 126.563 51.848C126.333 51.288 125.941 50.8613 125.387 50.568C124.837 50.2693 124.168 50.12 123.379 50.12C122.429 50.12 121.656 50.3333 121.059 50.76C120.461 51.1867 120.061 51.7867 119.859 52.56L121.003 52.896C121.168 52.32 121.453 51.8987 121.859 51.632C122.269 51.3653 122.771 51.232 123.363 51.232C124.184 51.232 124.771 51.424 125.123 51.808C125.475 52.1867 125.656 52.7653 125.667 53.544C125.283 53.5973 124.859 53.6533 124.395 53.712C123.936 53.7707 123.475 53.8373 123.011 53.912C122.547 53.9867 122.12 54.072 121.731 54.168C121.085 54.3387 120.557 54.624 120.147 55.024C119.736 55.4187 119.531 55.9707 119.531 56.68C119.531 57.1387 119.64 57.5627 119.859 57.952C120.077 58.3413 120.405 58.6533 120.843 58.888C121.285 59.1227 121.832 59.24 122.483 59.24ZM122.619 58.224C122.155 58.224 121.781 58.1493 121.499 58C121.221 57.8453 121.019 57.6507 120.891 57.416C120.768 57.176 120.707 56.9307 120.707 56.68C120.707 56.2107 120.864 55.8587 121.179 55.624C121.493 55.3893 121.835 55.2187 122.203 55.112C122.677 54.984 123.229 54.88 123.859 54.8C124.488 54.72 125.085 54.6453 125.651 54.576C125.651 54.7733 125.643 55 125.627 55.256C125.616 55.5067 125.587 55.7387 125.539 55.952C125.427 56.6027 125.117 57.144 124.611 57.576C124.109 58.008 123.445 58.224 122.619 58.224ZM132.253 59.24C132.883 59.24 133.435 59.112 133.909 58.856C134.384 58.5947 134.776 58.24 135.085 57.792V59H136.141V47.48H134.957V51.376C134.643 50.9813 134.253 50.6747 133.789 50.456C133.331 50.232 132.803 50.12 132.205 50.12C131.416 50.12 130.739 50.32 130.173 50.72C129.608 51.12 129.173 51.664 128.869 52.352C128.571 53.04 128.421 53.8133 128.421 54.672C128.421 55.536 128.571 56.312 128.869 57C129.173 57.688 129.611 58.2347 130.181 58.64C130.757 59.04 131.448 59.24 132.253 59.24ZM132.373 58.144C131.776 58.144 131.275 57.992 130.869 57.688C130.469 57.3787 130.168 56.9627 129.965 56.44C129.768 55.9173 129.669 55.328 129.669 54.672C129.669 54.0213 129.768 53.4347 129.965 52.912C130.163 52.3893 130.461 51.976 130.861 51.672C131.267 51.368 131.779 51.216 132.397 51.216C133.299 51.216 133.971 51.5387 134.413 52.184C134.861 52.824 135.085 53.6533 135.085 54.672C135.085 55.3387 134.987 55.9333 134.789 56.456C134.592 56.9787 134.293 57.392 133.893 57.696C133.493 57.9947 132.987 58.144 132.373 58.144ZM141.61 59.232C142.671 59.232 143.503 59 144.106 58.536C144.714 58.0667 145.018 57.424 145.018 56.608C145.018 56.16 144.922 55.784 144.73 55.48C144.543 55.176 144.22 54.912 143.762 54.688C143.308 54.464 142.684 54.2507 141.89 54.048C141.212 53.8773 140.69 53.72 140.322 53.576C139.959 53.432 139.708 53.28 139.57 53.12C139.431 52.9547 139.362 52.7573 139.362 52.528C139.362 52.1173 139.554 51.7893 139.938 51.544C140.322 51.2987 140.82 51.1813 141.434 51.192C142.084 51.2027 142.62 51.3573 143.042 51.656C143.463 51.9493 143.716 52.3493 143.802 52.856L145.002 52.64C144.943 52.1387 144.756 51.6987 144.442 51.32C144.127 50.9413 143.711 50.648 143.194 50.44C142.682 50.2267 142.1 50.12 141.45 50.12C140.799 50.12 140.226 50.224 139.73 50.432C139.239 50.6347 138.855 50.9227 138.578 51.296C138.306 51.664 138.17 52.0933 138.17 52.584C138.17 52.984 138.26 53.3253 138.442 53.608C138.628 53.8853 138.946 54.1333 139.394 54.352C139.842 54.5653 140.455 54.7787 141.234 54.992C141.964 55.1893 142.511 55.36 142.874 55.504C143.242 55.648 143.487 55.8053 143.61 55.976C143.732 56.1413 143.794 56.3573 143.794 56.624C143.794 57.0933 143.604 57.4667 143.226 57.744C142.847 58.0213 142.33 58.16 141.674 58.16C141.002 58.16 140.436 58.016 139.978 57.728C139.519 57.4347 139.228 57.0427 139.106 56.552L137.906 56.752C138.055 57.5307 138.455 58.1387 139.106 58.576C139.762 59.0133 140.596 59.232 141.61 59.232ZM149.987 62.84H151.171V57.968C151.48 58.3627 151.862 58.6747 152.315 58.904C152.768 59.128 153.288 59.24 153.875 59.24C154.686 59.24 155.376 59.04 155.947 58.64C156.518 58.2347 156.952 57.688 157.251 57C157.555 56.312 157.707 55.536 157.707 54.672C157.707 53.8133 157.555 53.04 157.251 52.352C156.952 51.664 156.52 51.12 155.955 50.72C155.39 50.32 154.712 50.12 153.923 50.12C153.283 50.12 152.72 50.248 152.235 50.504C151.755 50.7547 151.358 51.104 151.043 51.552V50.36H149.987V62.84ZM153.755 58.144C153.142 58.144 152.635 57.9947 152.235 57.696C151.835 57.392 151.536 56.9787 151.339 56.456C151.142 55.9333 151.043 55.3387 151.043 54.672C151.043 53.6533 151.264 52.824 151.707 52.184C152.155 51.5387 152.83 51.216 153.731 51.216C154.35 51.216 154.859 51.368 155.259 51.672C155.664 51.976 155.966 52.3893 156.163 52.912C156.36 53.4347 156.459 54.0213 156.459 54.672C156.459 55.328 156.358 55.9173 156.155 56.44C155.958 56.9627 155.659 57.3787 155.259 57.688C154.859 57.992 154.358 58.144 153.755 58.144ZM163.12 59.24C163.957 59.24 164.706 59.0347 165.368 58.624C166.034 58.2133 166.538 57.6293 166.88 56.872L165.784 56.448C165.234 57.5573 164.33 58.112 163.072 58.112C162.208 58.112 161.53 57.8427 161.04 57.304C160.554 56.7653 160.288 56 160.24 55.008H167.048C167.09 53.4827 166.757 52.288 166.048 51.424C165.344 50.5547 164.352 50.12 163.072 50.12C162.24 50.12 161.517 50.3067 160.904 50.68C160.296 51.0533 159.824 51.584 159.488 52.272C159.152 52.96 158.984 53.776 158.984 54.72C158.984 55.632 159.152 56.4267 159.488 57.104C159.829 57.7813 160.309 58.3067 160.928 58.68C161.552 59.0533 162.282 59.24 163.12 59.24ZM163.104 51.2C164.73 51.2 165.634 52.1413 165.816 54.024H160.264C160.354 53.112 160.642 52.4133 161.128 51.928C161.613 51.4427 162.272 51.2 163.104 51.2ZM168.823 59H169.999V54.688C169.999 54.1707 170.058 53.656 170.175 53.144C170.298 52.6267 170.575 52.1973 171.007 51.856C171.322 51.6 171.663 51.4533 172.031 51.416C172.404 51.3733 172.751 51.3893 173.071 51.464V50.36C172.692 50.264 172.263 50.2613 171.783 50.352C171.303 50.4373 170.892 50.6293 170.551 50.928C170.295 51.12 170.071 51.3867 169.879 51.728V50.36H168.823V59ZM181.144 59.24C181.773 59.24 182.325 59.112 182.8 58.856C183.275 58.5947 183.667 58.24 183.976 57.792V59H185.032V47.48H183.848V51.376C183.533 50.9813 183.144 50.6747 182.68 50.456C182.221 50.232 181.693 50.12 181.096 50.12C180.307 50.12 179.629 50.32 179.064 50.72C178.499 51.12 178.064 51.664 177.76 52.352C177.461 53.04 177.312 53.8133 177.312 54.672C177.312 55.536 177.461 56.312 177.76 57C178.064 57.688 178.501 58.2347 179.072 58.64C179.648 59.04 180.339 59.24 181.144 59.24ZM181.264 58.144C180.667 58.144 180.165 57.992 179.76 57.688C179.36 57.3787 179.059 56.9627 178.856 56.44C178.659 55.9173 178.56 55.328 178.56 54.672C178.56 54.0213 178.659 53.4347 178.856 52.912C179.053 52.3893 179.352 51.976 179.752 51.672C180.157 51.368 180.669 51.216 181.288 51.216C182.189 51.216 182.861 51.5387 183.304 52.184C183.752 52.824 183.976 53.6533 183.976 54.672C183.976 55.3387 183.877 55.9333 183.68 56.456C183.483 56.9787 183.184 57.392 182.784 57.696C182.384 57.9947 181.877 58.144 181.264 58.144ZM189.748 59.24C191.258 59.24 192.354 58.6827 193.036 57.568V59H194.084V53.632C194.084 53.312 194.068 52.9973 194.036 52.688C194.004 52.3787 193.935 52.0987 193.828 51.848C193.599 51.288 193.207 50.8613 192.652 50.568C192.103 50.2693 191.434 50.12 190.644 50.12C189.695 50.12 188.922 50.3333 188.324 50.76C187.727 51.1867 187.327 51.7867 187.124 52.56L188.268 52.896C188.434 52.32 188.719 51.8987 189.124 51.632C189.535 51.3653 190.036 51.232 190.628 51.232C191.45 51.232 192.036 51.424 192.388 51.808C192.74 52.1867 192.922 52.7653 192.932 53.544C192.548 53.5973 192.124 53.6533 191.66 53.712C191.202 53.7707 190.74 53.8373 190.276 53.912C189.812 53.9867 189.386 54.072 188.996 54.168C188.351 54.3387 187.823 54.624 187.412 55.024C187.002 55.4187 186.796 55.9707 186.796 56.68C186.796 57.1387 186.906 57.5627 187.124 57.952C187.343 58.3413 187.671 58.6533 188.108 58.888C188.551 59.1227 189.098 59.24 189.748 59.24ZM189.884 58.224C189.42 58.224 189.047 58.1493 188.764 58C188.487 57.8453 188.284 57.6507 188.156 57.416C188.034 57.176 187.972 56.9307 187.972 56.68C187.972 56.2107 188.13 55.8587 188.444 55.624C188.759 55.3893 189.1 55.2187 189.468 55.112C189.943 54.984 190.495 54.88 191.124 54.8C191.754 54.72 192.351 54.6453 192.916 54.576C192.916 54.7733 192.908 55 192.892 55.256C192.882 55.5067 192.852 55.7387 192.804 55.952C192.692 56.6027 192.383 57.144 191.876 57.576C191.375 58.008 190.711 58.224 189.884 58.224ZM196.914 62.84H198.091L202.731 50.36H201.531L198.915 57.464L196.075 50.36H194.826L198.339 58.976L196.914 62.84Z" fill="#18191F"/>
<defs>
<clipPath id="clip0_2_300">
<rect width="32" height="32" fill="white" transform="translate(8 17)"/>
</clipPath>
</defs>
</svg>
