<svg width="105" height="28" viewBox="0 0 105 28" fill="none" xmlns="http://www.w3.org/2000/svg">
<path d="M0.575989 28.0001H10.0799C14.5865 28.0001 18.2398 24.3509 18.2398 19.8494H8.7359C4.22931 19.8494 0.575989 23.4986 0.575989 28.0001Z" fill="#F22BB2"/>
<path d="M0 8.15069V20.137C4.5066 20.137 8.15991 16.4878 8.15991 11.9863V0C3.65332 0 0 3.64919 0 8.15069Z" fill="#8C30F5"/>
<path d="M27.4557 0H17.9518C13.4452 0 9.7919 3.64919 9.7919 8.15068H19.2958C23.8024 8.15068 27.4557 4.5015 27.4557 0Z" fill="#FE9A22"/>
<path d="M27.4557 19.3698V7.38354C22.9491 7.38354 19.2958 11.0327 19.2958 15.5342V27.5205C23.8024 27.5205 27.4557 23.8713 27.4557 19.3698Z" fill="#2EC5CE"/>
<path d="M40.4457 17.92V7.00002H37.2421V21H45.4514V17.92H40.4457Z" fill="#0B0D17"/>
<path d="M53.9327 11V11.94C53.272 11.18 52.2909 10.72 50.9493 10.72C48.3264 10.72 46.1639 13.02 46.1639 16C46.1639 18.98 48.3264 21.28 50.9493 21.28C52.2909 21.28 53.272 20.82 53.9327 20.06V21H56.9361V11H53.9327ZM51.55 18.44C50.1685 18.44 49.1673 17.5 49.1673 16C49.1673 14.5 50.1685 13.56 51.55 13.56C52.9316 13.56 53.9327 14.5 53.9327 16C53.9327 17.5 52.9316 18.44 51.55 18.44Z" fill="#0B0D17"/>
<path d="M65.0062 10.72C63.6847 10.72 62.6836 11.2 62.1429 11.94V11H59.1395V21H62.1429V15.54C62.1429 14.12 62.9038 13.48 64.0051 13.48C64.9661 13.48 65.747 14.06 65.747 15.3V21H68.7504V14.86C68.7504 12.16 67.0285 10.72 65.0062 10.72Z" fill="#0B0D17"/>
<path d="M78.0811 7.00002V11.94C77.4204 11.18 76.4393 10.72 75.0978 10.72C72.4748 10.72 70.3123 13.02 70.3123 16C70.3123 18.98 72.4748 21.28 75.0978 21.28C76.4393 21.28 77.4204 20.82 78.0811 20.06V21H81.0845V7.00002H78.0811ZM75.6984 18.44C74.3169 18.44 73.3157 17.5 73.3157 16C73.3157 14.5 74.3169 13.56 75.6984 13.56C77.08 13.56 78.0811 14.5 78.0811 16C78.0811 17.5 77.08 18.44 75.6984 18.44Z" fill="#0B0D17"/>
<path d="M84.7896 10.12C85.7708 10.12 86.5917 9.30002 86.5917 8.32002C86.5917 7.34002 85.7708 6.52002 84.7896 6.52002C83.8085 6.52002 82.9876 7.34002 82.9876 8.32002C82.9876 9.30002 83.8085 10.12 84.7896 10.12ZM83.288 21H86.2913V11H83.288V21Z" fill="#0B0D17"/>
<path d="M93.9954 9.60002V6.72002C90.6716 6.52002 89.1299 8.20002 89.1299 11H87.7884V13.88H89.1299V21H92.1333V13.88H93.9954V11H92.1333C92.1333 9.84002 92.8741 9.50002 93.9954 9.60002Z" fill="#0B0D17"/>
<path d="M101.796 11L99.9143 17.12L97.6917 11H94.388L98.3725 20.54C97.932 21.76 97.2713 22.2 95.8697 22.2V25C98.6729 25.14 100.455 23.88 101.576 20.7L105 11H101.796Z" fill="#0B0D17"/>
</svg>
