<svg width="135" height="40" viewBox="0 0 135 40" fill="none" xmlns="http://www.w3.org/2000/svg">
<path d="M124.249 -0.000114141H10.7566C10.3429 -0.000114141 9.9342 -0.000114141 9.5216 0.00188586C9.17621 0.00388586 8.83358 0.00969586 8.48488 0.0145859C7.72733 0.0224877 6.97157 0.0815621 6.22416 0.191296C5.4778 0.303418 4.75482 0.514802 4.07967 0.818296C3.40534 1.12436 2.7892 1.52205 2.25357 1.99696C1.71514 2.47052 1.26632 3.0179 0.924356 3.61805C0.581453 4.21699 0.343683 4.85882 0.219258 5.52137C0.0936495 6.18307 0.0260586 6.85241 0.0170916 7.52337C0.00662229 7.82997 0.00551669 8.13759 0 8.44423V31.5585C0.00551669 31.869 0.00662229 32.1698 0.0170916 32.4804C0.0260614 33.1513 0.0936522 33.8206 0.219258 34.4823C0.343339 35.1452 0.581124 35.7874 0.924356 36.3866C1.26616 36.9848 1.71505 37.53 2.25357 38.0009C2.78717 38.4779 3.40371 38.8759 4.07967 39.1796C4.75481 39.4839 5.47772 39.6965 6.22416 39.8104C6.9717 39.9192 7.72738 39.9783 8.48488 39.9872C8.83358 39.994 9.17621 39.9979 9.5216 39.9979C9.93419 39.9999 10.343 39.9999 10.7566 39.9999H124.249C124.655 39.9999 125.067 39.9999 125.472 39.9979C125.816 39.9979 126.169 39.994 126.512 39.9872C127.268 39.9788 128.023 39.9197 128.769 39.8104C129.518 39.6957 130.243 39.4831 130.921 39.1796C131.597 38.8757 132.213 38.4777 132.746 38.0009C133.283 37.5281 133.733 36.9833 134.079 36.3866C134.42 35.787 134.655 35.1448 134.777 34.4823C134.903 33.8205 134.973 33.1514 134.987 32.4804C134.991 32.1698 134.991 31.869 134.991 31.5585C135 31.1952 135 30.8339 135 30.4647V9.53602C135 9.16981 135 8.80653 134.991 8.44423C134.991 8.13759 134.991 7.82997 134.987 7.52333C134.973 6.85231 134.903 6.18312 134.777 5.52133C134.655 4.85917 134.419 4.21739 134.079 3.61801C133.383 2.41508 132.278 1.43591 130.921 0.818206C130.243 0.515453 129.518 0.304126 128.769 0.191206C128.023 0.0809886 127.269 0.0218936 126.512 0.0144459C126.169 0.00956586 125.816 0.00370586 125.472 0.00175586C125.067 -0.000244141 124.655 -0.000244141 124.249 -0.000244141V-0.000114141Z" fill="#A6A6A6"/>
<path d="M9.43001 39.1279C9.08569 39.1279 8.74969 39.124 8.40807 39.1172C7.70037 39.109 6.99433 39.0545 6.29574 38.954C5.64433 38.8547 5.0133 38.67 4.42345 38.406C3.839 38.1442 3.30594 37.8009 2.84469 37.3892C2.37676 36.9824 1.98718 36.5106 1.6914 35.9924C1.39236 35.4709 1.18541 34.9119 1.07775 34.3349C0.961494 33.7149 0.898592 33.0879 0.889592 32.4595C0.882427 32.2485 0.873047 31.5462 0.873047 31.5462V8.4408C0.873047 8.4408 0.883037 7.74924 0.889648 7.54607C0.898266 6.91862 0.960802 6.29266 1.07671 5.67361C1.18457 5.09501 1.39168 4.53439 1.69088 4.01116C1.98557 3.49337 2.37299 3.02118 2.8381 2.61292C3.30269 2.20077 3.83745 1.85568 4.42289 1.59023C5.01139 1.32706 5.64123 1.14366 6.29132 1.04618C6.99221 0.944725 7.7007 0.889873 8.41085 0.882086L9.43056 0.869873H125.57L126.602 0.882576C127.306 0.889976 128.008 0.944339 128.702 1.0452C129.359 1.14391 129.995 1.32858 130.59 1.59316C131.763 2.12812 132.718 2.97448 133.32 4.0136C133.614 4.53322 133.818 5.08926 133.924 5.66287C134.042 6.287 134.107 6.91788 134.121 7.55047C134.124 7.83373 134.124 8.13799 134.124 8.4408C134.133 8.81587 134.133 9.17288 134.133 9.53281V30.4659C134.133 30.8292 134.133 31.1838 134.124 31.5413C134.124 31.8666 134.124 32.1645 134.12 32.4712C134.107 33.0925 134.042 33.7121 133.927 34.3251C133.821 34.9063 133.615 35.4696 133.316 35.9954C133.018 36.5079 132.631 36.9757 132.169 37.3814C131.707 37.7953 131.173 38.1406 130.587 38.4041C129.994 38.6702 129.358 38.8556 128.702 38.954C128.004 39.055 127.297 39.1096 126.59 39.1172C126.259 39.124 125.912 39.1279 125.576 39.1279L124.35 39.1299L9.43001 39.1279Z" fill="black"/>
</svg>
