<svg width="48" height="48" viewBox="0 0 48 48" fill="none" xmlns="http://www.w3.org/2000/svg">
<path d="M36 40H24C23.6464 40 23.3073 39.8595 23.0572 39.6095C22.8072 39.3594 22.6667 39.0203 22.6667 38.6667V36C22.6667 35.6464 22.8072 35.3072 23.0572 35.0572C23.3073 34.8071 23.6464 34.6667 24 34.6667H36C36.3536 34.6667 36.6928 34.8071 36.9428 35.0572C37.1929 35.3072 37.3334 35.6464 37.3334 36V38.6667C37.3334 39.0203 37.1929 39.3594 36.9428 39.6095C36.6928 39.8595 36.3536 40 36 40Z" fill="#D6B1FF"/>
<path d="M36 8H12C11.6464 8 11.3073 8.14047 11.0572 8.39052C10.8072 8.64057 10.6667 8.97971 10.6667 9.33333V12C10.6667 12.3536 10.8072 12.6928 11.0572 12.9428C11.3073 13.1929 11.6464 13.3333 12 13.3333H36C36.3536 13.3333 36.6928 13.1929 36.9428 12.9428C37.1929 12.6928 37.3334 12.3536 37.3334 12V9.33333C37.3334 8.97971 37.1929 8.64057 36.9428 8.39052C36.6928 8.14047 36.3536 8 36 8Z" fill="#2EC5CE"/>
<path d="M36 16H12C11.6464 16 11.3073 16.1405 11.0572 16.3905C10.8072 16.6406 10.6667 16.9797 10.6667 17.3333V30.6667C10.6667 31.0203 10.8072 31.3594 11.0572 31.6095C11.3073 31.8595 11.6464 32 12 32H36C36.3536 32 36.6928 31.8595 36.9428 31.6095C37.1929 31.3594 37.3334 31.0203 37.3334 30.6667V17.3333C37.3334 16.9797 37.1929 16.6406 36.9428 16.3905C36.6928 16.1405 36.3536 16 36 16Z" fill="#8C30F5"/>
</svg>
