<svg width="135" height="40" viewBox="0 0 135 40" fill="none" xmlns="http://www.w3.org/2000/svg">
<path d="M9.43001 39.1279C9.08569 39.1279 8.74969 39.124 8.40807 39.1172C7.70037 39.109 6.99433 39.0545 6.29574 38.954C5.64433 38.8547 5.0133 38.67 4.42345 38.406C3.839 38.1442 3.30594 37.8009 2.84469 37.3892C2.37676 36.9824 1.98718 36.5106 1.6914 35.9924C1.39236 35.4709 1.18541 34.9119 1.07775 34.3349C0.961494 33.7149 0.898592 33.0879 0.889592 32.4595C0.882427 32.2485 0.873047 31.5462 0.873047 31.5462V8.4408C0.873047 8.4408 0.883037 7.74924 0.889648 7.54607C0.898266 6.91862 0.960802 6.29266 1.07671 5.67361C1.18457 5.09501 1.39168 4.53439 1.69088 4.01116C1.98557 3.49337 2.37299 3.02118 2.8381 2.61292C3.30269 2.20077 3.83745 1.85568 4.42289 1.59023C5.01139 1.32706 5.64123 1.14366 6.29132 1.04618C6.99221 0.944725 7.7007 0.889873 8.41085 0.882086L9.43057 0.869873H125.57L126.602 0.882576C127.306 0.889976 128.008 0.944339 128.702 1.0452C129.359 1.14391 129.995 1.32858 130.59 1.59316C131.763 2.12812 132.718 2.97448 133.32 4.0136C133.614 4.53322 133.818 5.08926 133.924 5.66287C134.042 6.287 134.107 6.91788 134.121 7.55047C134.124 7.83373 134.124 8.13799 134.124 8.4408C134.133 8.81587 134.133 9.17288 134.133 9.53281V30.4659C134.133 30.8292 134.133 31.1838 134.124 31.5413C134.124 31.8666 134.124 32.1645 134.12 32.4712C134.107 33.0925 134.042 33.7121 133.927 34.3251C133.821 34.9063 133.615 35.4696 133.316 35.9954C133.018 36.5079 132.631 36.9757 132.169 37.3814C131.707 37.7953 131.173 38.1406 130.587 38.4041C129.994 38.6702 129.358 38.8556 128.702 38.954C128.004 39.055 127.297 39.1095 126.59 39.1172C126.259 39.124 125.912 39.1279 125.576 39.1279L124.35 39.1299L9.43001 39.1279Z" fill="black"/>
</svg>
