<svg width="111" height="26" viewBox="0 0 111 26" fill="none" xmlns="http://www.w3.org/2000/svg">
<g clip-path="url(#clip0_2_161)">
<path d="M39.5019 9.2479V10.7214H39.547C40.0772 9.93248 40.9574 9.0034 42.9084 9.0034C44.4262 9.0034 45.5906 9.776 46.0896 10.943H46.1347C46.5609 10.353 47.0495 9.9064 47.597 9.59019C48.2451 9.2153 48.9659 9.00014 49.8738 9.00014C51.9288 9.00014 53.7481 10.3367 53.7481 13.7074V20.1001H50.6154V14.1541C50.6154 12.4459 49.9986 11.4581 48.7164 11.4581C47.7773 11.4581 47.0946 12.0514 46.8347 12.7816C46.7446 13.0326 46.703 13.3749 46.703 13.6618V20.1034H43.5703V13.9128C43.5703 12.4622 42.9777 11.4549 41.7128 11.4549C40.7009 11.4549 40.0668 12.2046 39.8069 12.8468C39.696 13.1207 39.6613 13.4369 39.6613 13.7335V20.1001H36.5251V9.2479H39.5019ZM69.9176 9.2479V11.2951H70.0042C70.5795 9.73036 71.9448 9.0034 73.1439 9.0034C73.4454 9.0034 73.6117 9.02622 73.8543 9.07186V11.9145C73.5666 11.8754 73.2998 11.8363 72.9255 11.8363C71.5671 11.8363 70.6211 12.5795 70.382 13.7433C70.33 13.9845 70.3126 14.2453 70.3126 14.5452V20.1034H67.0968V9.2479H69.9176ZM78.2206 5.65222V9.0686H80.9375V11.833H78.2206V15.9111C78.2206 17.2314 78.5776 17.8703 79.638 17.8703C80.137 17.8703 80.5043 17.8117 80.8231 17.7367L80.8647 20.0284C80.4385 20.1784 79.5306 20.3414 78.6088 20.3414C77.5241 20.3414 76.6196 19.986 76.0686 19.4351C75.438 18.8059 75.1469 17.7758 75.1469 16.3089V5.65222H78.2206ZM34.342 20.1001H31.2231V5.65222H34.342V20.1001ZM26.025 16.2241C26.025 16.4229 26.0077 16.6316 25.9488 16.8109C25.7062 17.5639 24.878 18.1996 23.8453 18.1996C22.9824 18.1996 22.2963 17.74 22.2963 16.7652C22.2963 15.2755 24.0428 14.8615 26.0285 14.8712V16.2241H26.025ZM29.1404 13.6259C29.1404 11.1647 28.0246 9.0034 24.2508 9.0034C22.3136 9.0034 20.775 9.51521 19.9364 9.9716L20.5497 11.9471C21.3156 11.4907 22.5389 11.1158 23.6963 11.1158C25.6127 11.1126 25.9245 12.1362 25.9245 12.7914V12.9479C21.7487 12.9414 19.1116 14.3007 19.1116 17.0717C19.1116 18.7636 20.4527 20.3479 22.7884 20.3479C24.2265 20.3479 25.4255 19.81 26.1463 18.9461H26.2156C26.2156 18.9461 26.6939 20.8206 29.3206 20.1034C29.182 19.321 29.1369 18.4897 29.1369 17.4889V13.6259H29.1404ZM3.44459 5.65222C3.76687 7.18112 4.68173 11.6211 4.68173 11.6211C5.06639 13.4467 5.41986 15.3602 5.6867 16.8728H5.73521C5.99511 15.2657 6.40403 13.7433 6.84067 11.8591L8.38276 5.65222H11.7962L13.2378 12.0188C13.6155 13.7889 13.917 15.1548 14.1561 16.8011H14.2011C14.461 15.1385 14.8007 13.7172 15.1715 11.8982L16.5576 5.65222H19.8324L15.7744 20.1001C13.1893 20.6315 12.1982 19.6535 11.8447 18.1018C11.4912 16.5468 10.7981 13.5901 10.7981 13.5901C10.4412 11.9699 10.164 10.829 9.96991 9.1664H9.92139C9.64416 10.8127 9.35307 11.9667 8.92336 13.5868L7.22186 20.1034C4.58124 20.5989 3.66638 19.8654 3.16043 17.8736C2.72379 16.1687 0 5.65548 0 5.65548H3.44459V5.65222ZM61.8987 16.2241C61.8987 16.4229 61.8814 16.6316 61.8224 16.8109C61.5799 17.5639 60.7516 18.1996 59.719 18.1996C58.8561 18.1996 58.1699 17.74 58.1699 16.7652C58.1699 15.2755 59.9165 14.8615 61.9022 14.8712V16.2241H61.8987ZM65.0141 13.6259C65.0141 11.1647 63.8982 9.0034 60.1244 9.0034C58.1873 9.0034 56.6486 9.51521 55.81 9.9716L56.4234 11.9471C57.1892 11.4907 58.4125 11.1158 59.57 11.1158C61.4828 11.1126 61.7982 12.1362 61.7982 12.7914V12.9479C57.6259 12.9414 54.9887 14.3007 54.9887 17.0717C54.9887 18.7636 56.3333 20.3479 58.6655 20.3479C60.1002 20.3479 61.3026 19.81 62.02 18.9461H62.0928C62.0928 18.9461 62.571 20.8206 65.1977 20.1034C65.0591 19.321 65.0141 18.4897 65.0141 17.4889V13.6259Z" fill="#041E42"/>
<path d="M93.5802 15.1241C93.8877 15.6517 93.8669 16.2406 93.5388 16.5096L87.8669 20.4276C87.2762 20.7646 86.3919 20.3561 85.8911 19.5017C85.3868 18.6439 85.4766 17.6874 86.0672 17.3504L92.3471 14.4705C92.7409 14.3208 93.2728 14.5965 93.5802 15.1241ZM101.045 15.1241C101.356 14.5965 101.884 14.3242 102.278 14.4671L108.561 17.3469C109.152 17.6839 109.238 18.6405 108.737 19.4983C108.233 20.3527 107.345 20.7578 106.758 20.4242L101.086 16.5062C100.762 16.2406 100.737 15.6483 101.045 15.1241ZM97.3108 17.2482C97.9291 17.2482 98.4369 17.5614 98.506 17.9733L99.1174 24.7745C99.1174 25.4485 98.3195 26 97.3143 26C96.3126 26 95.5112 25.4485 95.5112 24.7745L96.1191 17.9733C96.1882 17.5614 96.696 17.2482 97.3108 17.2482ZM101.086 9.49385L106.758 5.5724C107.345 5.2354 108.233 5.64048 108.737 6.4983C109.238 7.35611 109.152 8.31265 108.561 8.64965L102.278 11.5329C101.884 11.6758 101.352 11.4035 101.045 10.8759C100.737 10.3483 100.762 9.75936 101.086 9.49385ZM92.3471 11.5329L86.0672 8.64965C85.48 8.31265 85.3902 7.35611 85.8911 6.4983C86.3919 5.64048 87.2797 5.2354 87.8669 5.5724L93.5388 9.49385C93.8669 9.75596 93.8877 10.3483 93.5802 10.8759C93.2728 11.4035 92.7409 11.6758 92.3471 11.5329ZM96.1191 8.02671L95.5112 1.22545C95.5112 0.551453 96.3091 0 97.3143 0C98.3195 0 99.1174 0.551453 99.1174 1.22545L98.506 8.02671C98.4369 8.43519 97.9291 8.75177 97.3108 8.75177C96.696 8.75177 96.1882 8.43519 96.1191 8.02671ZM110.271 20.4004V20.2302H110.427C110.478 20.2302 110.513 20.2642 110.513 20.3153C110.513 20.3629 110.478 20.4004 110.427 20.4004H110.271ZM110.143 20.7101C110.143 20.7272 110.157 20.7442 110.178 20.7442H110.244C110.261 20.7442 110.278 20.7272 110.278 20.7101V20.5161H110.385L110.472 20.7203C110.478 20.734 110.489 20.7442 110.503 20.7442H110.582C110.606 20.7442 110.624 20.7203 110.613 20.6965C110.582 20.6352 110.551 20.5706 110.52 20.5059C110.572 20.4889 110.651 20.4378 110.651 20.3153C110.651 20.1859 110.544 20.111 110.437 20.111H110.178C110.161 20.111 110.143 20.128 110.143 20.1451V20.7101ZM109.864 20.4276C109.864 20.1519 110.092 19.9272 110.371 19.9272C110.651 19.9272 110.879 20.1485 110.879 20.4276C110.879 20.7033 110.655 20.928 110.371 20.928C110.088 20.928 109.864 20.7033 109.864 20.4276ZM109.743 20.4276C109.743 20.768 110.022 21.0471 110.371 21.0471C110.717 21.0471 111 20.768 111 20.4276C111 20.0872 110.717 19.8081 110.371 19.8081C110.022 19.8081 109.743 20.0872 109.743 20.4276Z" fill="#FFC124"/>
</g>
<defs>
<clipPath id="clip0_2_161">
<rect width="111" height="26" fill="white"/>
</clipPath>
</defs>
</svg>
